<?xml version="1.0" encoding="utf-8"?>
<!-- Generator: Adobe Illustrator 18.0.0, SVG Export Plug-In . SVG Version: 6.00 Build 0)  -->
<!DOCTYPE svg PUBLIC "-//W3C//DTD SVG 1.1//EN" "http://www.w3.org/Graphics/SVG/1.1/DTD/svg11.dtd">
<svg version="1.1" id="Capa_1" xmlns="http://www.w3.org/2000/svg" xmlns:xlink="http://www.w3.org/1999/xlink" x="0px" y="0px"
	 viewBox="0 0 256 256" enable-background="new 0 0 256 256" xml:space="preserve">
<g>
	<polygon fill="#808CBC" points="153.1,-0.4 0,-0.4 0,229.4 25.5,229.4 25.5,25.8 153.1,25.8 	"/>
	<polygon fill="#808CBC" points="256,26.1 230.5,26.1 230.5,229.8 102.9,229.8 102.9,256 256,256 	"/>
</g>
<g>
	<path fill="#FFFFFF" d="M125.7,167.7v18.4H52V69.7h19.4v98H125.7z"/>
	<polygon fill="#FFFFFF" points="178.6,152.7 200.6,124 181.5,124 169.3,141.2 157.1,124 138,124 159.8,152.7 134.7,186 138.5,186 
		153.2,186 154.2,186 169.3,164.2 184.4,186 185.4,186 200.1,186 204,186 	"/>
</g>
</svg>
