<?xml version="1.0" encoding="utf-8"?>
<!-- Generator: Adobe Illustrator 18.0.0, SVG Export Plug-In . SVG Version: 6.00 Build 0)  -->
<!DOCTYPE svg PUBLIC "-//W3C//DTD SVG 1.1//EN" "http://www.w3.org/Graphics/SVG/1.1/DTD/svg11.dtd">
<svg version="1.1" id="Capa_1" xmlns="http://www.w3.org/2000/svg" xmlns:xlink="http://www.w3.org/1999/xlink" x="0px" y="0px"
	 viewBox="0 0 256 256" enable-background="new 0 0 256 256" xml:space="preserve">
<g>
	<polygon fill="#808CBC" points="153.1,-0.4 0,-0.4 0,229.4 25.5,229.4 25.5,25.8 153.1,25.8 	"/>
	<polygon fill="#808CBC" points="256,26.1 230.5,26.1 230.5,229.8 102.9,229.8 102.9,256 256,256 	"/>
</g>
<path fill="#001978" stroke="#001978" stroke-miterlimit="10" d="M45,209.5V54.9h38.1v-8.4h13.5v8.4h24.6v-8.4h13.5v8.4h24.6v-7.5
	h13.5v7.5H211v154.6H45z M197.5,194V99.2H58.5V194H197.5z M197.5,85.7V68.4h-24.6v8.4h-13.5v-8.4h-24.6v8.4h-13.5v-8.4H96.7v8.4
	H83.1v-8.4H58.5v17.3H197.5z"/>
</svg>
