<?xml version="1.0" encoding="utf-8"?>
<!-- Generator: Adobe Illustrator 18.0.0, SVG Export Plug-In . SVG Version: 6.00 Build 0)  -->
<!DOCTYPE svg PUBLIC "-//W3C//DTD SVG 1.1//EN" "http://www.w3.org/Graphics/SVG/1.1/DTD/svg11.dtd">
<svg version="1.1" id="Capa_1" xmlns="http://www.w3.org/2000/svg" xmlns:xlink="http://www.w3.org/1999/xlink" x="0px" y="0px"
	 viewBox="0 0 256 256" enable-background="new 0 0 256 256" xml:space="preserve">
<g>
	<polygon fill="#001978" points="177,170 177,158 199,158 199,142 177,142 177,132 207,132 207,116 161,116 161,186 207,186 
		207,170 	"/>
	<path fill="#001978" d="M128.4,69.8h19.4v119.7L68.2,111v75.2H48.7V66.5l79.7,78.5V69.8z"/>
</g>
<g>
	<polygon fill="#808CBC" points="153.1,-0.4 0,-0.4 0,229.4 25.5,229.4 25.5,25.8 153.1,25.8 	"/>
	<polygon fill="#808CBC" points="256,26.1 230.5,26.1 230.5,229.8 102.9,229.8 102.9,256 256,256 	"/>
</g>
</svg>
