<?xml version="1.0" encoding="utf-8"?>
<!-- Generator: Adobe Illustrator 18.0.0, SVG Export Plug-In . SVG Version: 6.00 Build 0)  -->
<!DOCTYPE svg PUBLIC "-//W3C//DTD SVG 1.1//EN" "http://www.w3.org/Graphics/SVG/1.1/DTD/svg11.dtd">
<svg version="1.1" id="Capa_1" xmlns="http://www.w3.org/2000/svg" xmlns:xlink="http://www.w3.org/1999/xlink" x="0px" y="0px"
	 viewBox="0 0 256 256" enable-background="new 0 0 256 256" xml:space="preserve">
<g>
	<path fill="#001978" d="M150.8,164.4c-12.2,12.7-27.3,20.8-45.9,20.8c-31,0-60.1-26.3-60.1-60.3c0-31.6,26.3-60.1,60.1-60.1
		c19.6,0,34.3,8.5,43.4,20.4l-15.6,12.4c-7-7.7-16.1-13.7-27.8-13.7c-19.9,0-40,18.4-40,41c0,22.9,17.1,41.2,40,41.2
		c11.4,0,22.6-7,29.3-14.6L150.8,164.4z"/>
	<polygon fill="#001978" points="197,124 197,131.3 197,155.5 159,118.2 159,122.7 159,185 170.5,185 175,185 175,153.9 211,191.2 
		211,124 	"/>
</g>
<g>
	<polygon fill="#808CBC" points="153.1,-0.4 0,-0.4 0,229.4 25.5,229.4 25.5,25.8 153.1,25.8 	"/>
	<polygon fill="#808CBC" points="256,26.1 230.5,26.1 230.5,229.8 102.9,229.8 102.9,256 256,256 	"/>
</g>
</svg>
